<svg width="25" height="24" viewBox="0 0 25 24" fill="none" xmlns="http://www.w3.org/2000/svg">
<path d="M14.2725 12.875C13.515 12.875 12.871 12.6198 12.3407 12.1094C11.8104 11.599 11.5453 10.9792 11.5453 10.25C11.5453 9.52083 11.8104 8.90104 12.3407 8.39062C12.871 7.88021 13.515 7.625 14.2725 7.625C15.0301 7.625 15.674 7.88021 16.2043 8.39062C16.7346 8.90104 16.9998 9.52083 16.9998 10.25C16.9998 10.9792 16.7346 11.599 16.2043 12.1094C15.674 12.6198 15.0301 12.875 14.2725 12.875ZM7.90889 15.5C7.40889 15.5 6.98086 15.3286 6.6248 14.9859C6.26874 14.6432 6.09071 14.2312 6.09071 13.75V6.75C6.09071 6.26875 6.26874 5.85677 6.6248 5.51406C6.98086 5.17135 7.40889 5 7.90889 5H20.6362C21.1362 5 21.5642 5.17135 21.9203 5.51406C22.2763 5.85677 22.4543 6.26875 22.4543 6.75V13.75C22.4543 14.2312 22.2763 14.6432 21.9203 14.9859C21.5642 15.3286 21.1362 15.5 20.6362 15.5H7.90889ZM9.72707 13.75H18.818C18.818 13.2688 18.996 12.8568 19.3521 12.5141C19.7081 12.1714 20.1362 12 20.6362 12V8.5C20.1362 8.5 19.7081 8.32865 19.3521 7.98594C18.996 7.64323 18.818 7.23125 18.818 6.75H9.72707C9.72707 7.23125 9.54904 7.64323 9.19298 7.98594C8.83692 8.32865 8.40889 8.5 7.90889 8.5V12C8.40889 12 8.83692 12.1714 9.19298 12.5141C9.54904 12.8568 9.72707 13.2688 9.72707 13.75ZM19.7271 19H4.27253C3.77253 19 3.3445 18.8286 2.98844 18.4859C2.63238 18.1432 2.45435 17.7312 2.45435 17.25V7.625H4.27253V17.25H19.7271V19Z" fill="#04B636"/>
</svg>
