<svg width="80" height="80" viewBox="0 0 80 80" fill="none" xmlns="http://www.w3.org/2000/svg">
<path d="M32.08 71.5424C47.0783 71.5424 59.2369 59.3838 59.2369 44.3854C59.2369 29.3871 47.0783 17.2285 32.08 17.2285C17.0816 17.2285 4.92307 29.3871 4.92307 44.3854C4.92307 59.3838 17.0816 71.5424 32.08 71.5424Z" fill="#D6FFD8"/>
<path d="M32.3871 65.3753L32.0426 64.7884C26.7811 55.8238 12.7992 36.7994 12.658 36.6084L12.4563 36.3344L17.2198 31.6267L32.2986 42.1558C41.7926 29.8359 50.6498 21.3741 56.4274 16.4327C62.7475 11.0273 66.8615 8.53883 66.9031 8.51498L66.9966 8.45898H75.0769L74.3051 9.14637C54.4545 26.8273 32.9385 64.4064 32.7241 64.7839L32.3871 65.3753Z" fill="#2FAA34"/>
</svg>
