<svg width="108" height="108" viewBox="0 0 108 108" fill="none" xmlns="http://www.w3.org/2000/svg">
<path d="M43.3064 96.581C63.5542 96.581 79.9682 80.167 79.9682 59.9192C79.9682 39.6714 63.5542 23.2573 43.3064 23.2573C23.0586 23.2573 6.64453 39.6714 6.64453 59.9192C6.64453 80.167 23.0586 96.581 43.3064 96.581Z" fill="#D6FFD8"/>
<path d="M43.719 88.256L43.254 87.4636C36.1509 75.3614 17.2754 49.6786 17.0848 49.4206L16.8125 49.0507L23.2433 42.6953L43.5996 56.9096C56.4165 40.2778 68.3738 28.8543 76.1735 22.1834C84.7057 14.8862 90.2596 11.5267 90.3156 11.4945L90.4419 11.4189H101.35L100.308 12.3469C73.51 36.2162 44.4634 86.9479 44.1741 87.4576L43.719 88.256Z" fill="#2FAA34"/>
</svg>
