<svg width="19" height="18" viewBox="0 0 19 18" fill="none" xmlns="http://www.w3.org/2000/svg">
<path d="M11.5762 17.0625H7.07617C3.00367 17.0625 1.26367 15.3225 1.26367 11.25V6.75C1.26367 2.6775 3.00367 0.9375 7.07617 0.9375H8.57617C8.88367 0.9375 9.13867 1.1925 9.13867 1.5C9.13867 1.8075 8.88367 2.0625 8.57617 2.0625H7.07617C3.61867 2.0625 2.38867 3.2925 2.38867 6.75V11.25C2.38867 14.7075 3.61867 15.9375 7.07617 15.9375H11.5762C15.0337 15.9375 16.2637 14.7075 16.2637 11.25V9.75C16.2637 9.4425 16.5187 9.1875 16.8262 9.1875C17.1337 9.1875 17.3887 9.4425 17.3887 9.75V11.25C17.3887 15.3225 15.6487 17.0625 11.5762 17.0625Z" fill="#ABABAB"/>
<path d="M6.70166 13.2675C6.24416 13.2675 5.82416 13.1025 5.51666 12.8025C5.14916 12.435 4.99166 11.9025 5.07416 11.34L5.39666 9.08251C5.45666 8.64751 5.74166 8.08501 6.04916 7.77751L11.9592 1.86751C13.4517 0.375013 14.9667 0.375013 16.4592 1.86751C17.2767 2.68501 17.6442 3.51751 17.5692 4.35001C17.5017 5.02501 17.1417 5.68501 16.4592 6.36001L10.5492 12.27C10.2417 12.5775 9.67916 12.8625 9.24416 12.9225L6.98666 13.245C6.88916 13.2675 6.79166 13.2675 6.70166 13.2675ZM12.7542 2.66251L6.84416 8.57251C6.70166 8.71501 6.53666 9.04501 6.50666 9.24001L6.18416 11.4975C6.15416 11.715 6.19916 11.895 6.31166 12.0075C6.42416 12.12 6.60416 12.165 6.82166 12.135L9.07916 11.8125C9.27416 11.7825 9.61166 11.6175 9.74666 11.475L15.6567 5.56501C16.1442 5.07751 16.3992 4.64251 16.4367 4.23751C16.4817 3.75001 16.2267 3.23251 15.6567 2.65501C14.4567 1.45501 13.6317 1.79251 12.7542 2.66251Z" fill="#ABABAB"/>
<path d="M15.2129 7.37249C15.1604 7.37249 15.1079 7.36499 15.0629 7.34999C13.0904 6.79499 11.5229 5.22749 10.9679 3.25499C10.8854 2.95499 11.0579 2.64749 11.3579 2.55749C11.6579 2.47499 11.9654 2.64749 12.0479 2.94749C12.4979 4.54499 13.7654 5.81249 15.3629 6.26249C15.6629 6.34499 15.8354 6.65999 15.7529 6.95999C15.6854 7.21499 15.4604 7.37249 15.2129 7.37249Z" fill="#ABABAB"/>
</svg>
