<svg width="16" height="16" viewBox="0 0 16 16" fill="none" xmlns="http://www.w3.org/2000/svg">
<path d="M8.00103 6.56004C8.23216 6.55993 8.461 6.51431 8.6745 6.42576C8.88799 6.33722 9.08195 6.20749 9.24531 6.04398C9.40867 5.88048 9.53822 5.6864 9.62657 5.47282C9.71492 5.25925 9.76034 5.03037 9.76023 4.79924C9.76013 4.56811 9.7145 4.33927 9.62596 4.12578C9.53741 3.91228 9.40768 3.71832 9.24418 3.55497C9.08067 3.39161 8.88659 3.26206 8.67302 3.17371C8.45944 3.08535 8.23056 3.03993 7.99943 3.04004C7.53265 3.04025 7.08507 3.22588 6.75516 3.5561C6.42525 3.88631 6.24002 4.33406 6.24023 4.80084C6.24045 5.26762 6.42608 5.7152 6.75629 6.04511C7.08651 6.37503 7.53425 6.56025 8.00103 6.56004ZM8.00103 9.44004C7.53404 9.44004 7.08618 9.62555 6.75596 9.95577C6.42575 10.286 6.24023 10.7338 6.24023 11.2008C6.24023 11.6678 6.42575 12.1157 6.75596 12.4459C7.08618 12.7761 7.53404 12.9616 8.00103 12.9616C8.46803 12.9616 8.91589 12.7761 9.24611 12.4459C9.57632 12.1157 9.76183 11.6678 9.76183 11.2008C9.76183 10.7338 9.57632 10.286 9.24611 9.95577C8.91589 9.62555 8.46803 9.44004 8.00103 9.44004Z" fill="white"/>
</svg>
