<svg width="70" height="20" viewBox="0 0 70 20" fill="none" xmlns="http://www.w3.org/2000/svg">
<rect width="70" height="20" rx="10" fill="#231F20"/>
<path d="M7.19618 6.70279C7.19618 5.87012 7.87085 5.19545 8.70352 5.19479H9.38952C9.78752 5.19479 10.1688 5.03679 10.4515 4.75679L10.9309 4.27679C11.5182 3.68612 12.4728 3.68345 13.0635 4.27079L13.0642 4.27145L13.0702 4.27679L13.5502 4.75679C13.8328 5.03745 14.2142 5.19479 14.6122 5.19479H15.2975C16.1302 5.19479 16.8055 5.86945 16.8055 6.70279V7.38745C16.8055 7.78545 16.9628 8.16745 17.2435 8.45012L17.7235 8.93012C18.3142 9.51745 18.3175 10.4721 17.7302 11.0628L17.7295 11.0635L17.7235 11.0695L17.2435 11.5495C16.9628 11.8315 16.8055 12.2128 16.8055 12.6108V13.2968C16.8055 14.1295 16.1308 14.8041 15.2982 14.8041H15.2975H14.6108C14.2128 14.8041 13.8308 14.9621 13.5488 15.2428L13.0688 15.7221C12.4822 16.3128 11.5282 16.3161 10.9375 15.7301C10.9368 15.7295 10.9362 15.7288 10.9355 15.7281L10.9295 15.7221L10.4502 15.2428C10.1682 14.9621 9.78618 14.8048 9.38818 14.8041H8.70352C7.87085 14.8041 7.19618 14.1295 7.19618 13.2968V12.6095C7.19618 12.2115 7.03818 11.8301 6.75752 11.5481L6.27818 11.0681C5.68752 10.4815 5.68418 9.52745 6.27085 8.93679C6.27085 8.93612 6.27152 8.93545 6.27218 8.93479L6.27818 8.92879L6.75752 8.44879C7.03818 8.16612 7.19618 7.78479 7.19618 7.38612V6.70279" stroke="white" stroke-width="0.95" stroke-linecap="round" stroke-linejoin="round"/>
<path d="M10.2871 11.7118L13.7138 8.28516" stroke="white" stroke-width="1.2" stroke-linecap="round" stroke-linejoin="round"/>
<path d="M13.6633 11.6654H13.6693" stroke="white" stroke-width="1.2" stroke-linecap="round" stroke-linejoin="round"/>
<path d="M10.3303 8.33333H10.3363" stroke="white" stroke-width="1.2" stroke-linecap="round" stroke-linejoin="round"/>
<path d="M23.37 13.5V12.82L26.22 10.07C26.4733 9.83 26.66 9.62 26.78 9.44C26.9067 9.25333 26.99 9.08333 27.03 8.93C27.0767 8.77 27.1 8.61667 27.1 8.47C27.1 8.11 26.9733 7.82667 26.72 7.62C26.4667 7.41333 26.0967 7.31 25.61 7.31C25.2367 7.31 24.9 7.37333 24.6 7.5C24.3 7.62 24.04 7.81 23.82 8.07L23.14 7.48C23.4067 7.14 23.7633 6.88 24.21 6.7C24.6633 6.51333 25.16 6.42 25.7 6.42C26.1867 6.42 26.61 6.5 26.97 6.66C27.33 6.81333 27.6067 7.03667 27.8 7.33C28 7.62333 28.1 7.97 28.1 8.37C28.1 8.59667 28.07 8.82 28.01 9.04C27.95 9.26 27.8367 9.49333 27.67 9.74C27.5033 9.98667 27.2633 10.2633 26.95 10.57L24.41 13.02L24.17 12.63H28.4V13.5H23.37ZM32.0724 13.58C31.5258 13.58 31.0358 13.44 30.6024 13.16C30.1758 12.88 29.8358 12.4733 29.5824 11.94C29.3358 11.4067 29.2124 10.76 29.2124 10C29.2124 9.24 29.3358 8.59333 29.5824 8.06C29.8358 7.52667 30.1758 7.12 30.6024 6.84C31.0358 6.56 31.5258 6.42 32.0724 6.42C32.6124 6.42 33.0991 6.56 33.5324 6.84C33.9658 7.12 34.3058 7.52667 34.5524 8.06C34.7991 8.59333 34.9224 9.24 34.9224 10C34.9224 10.76 34.7991 11.4067 34.5524 11.94C34.3058 12.4733 33.9658 12.88 33.5324 13.16C33.0991 13.44 32.6124 13.58 32.0724 13.58ZM32.0724 12.69C32.4391 12.69 32.7591 12.59 33.0324 12.39C33.3124 12.19 33.5291 11.89 33.6824 11.49C33.8424 11.09 33.9224 10.5933 33.9224 10C33.9224 9.40667 33.8424 8.91 33.6824 8.51C33.5291 8.11 33.3124 7.81 33.0324 7.61C32.7591 7.41 32.4391 7.31 32.0724 7.31C31.7058 7.31 31.3824 7.41 31.1024 7.61C30.8224 7.81 30.6024 8.11 30.4424 8.51C30.2891 8.91 30.2124 9.40667 30.2124 10C30.2124 10.5933 30.2891 11.09 30.4424 11.49C30.6024 11.89 30.8224 12.19 31.1024 12.39C31.3824 12.59 31.7058 12.69 32.0724 12.69ZM39.5279 13.5L44.3079 6.5H45.0779L40.2979 13.5H39.5279ZM40.0879 10.26C39.7679 10.26 39.4846 10.18 39.2379 10.02C38.9912 9.86 38.7979 9.63667 38.6579 9.35C38.5246 9.06333 38.4579 8.73 38.4579 8.35C38.4579 7.97 38.5246 7.63667 38.6579 7.35C38.7979 7.06333 38.9912 6.84 39.2379 6.68C39.4846 6.52 39.7679 6.44 40.0879 6.44C40.4146 6.44 40.6979 6.52 40.9379 6.68C41.1846 6.84 41.3746 7.06333 41.5079 7.35C41.6412 7.63667 41.7079 7.97 41.7079 8.35C41.7079 8.73 41.6412 9.06333 41.5079 9.35C41.3746 9.63667 41.1846 9.86 40.9379 10.02C40.6979 10.18 40.4146 10.26 40.0879 10.26ZM40.0879 9.69C40.3946 9.69 40.6346 9.57333 40.8079 9.34C40.9812 9.1 41.0679 8.77 41.0679 8.35C41.0679 7.93 40.9812 7.60333 40.8079 7.37C40.6346 7.13 40.3946 7.01 40.0879 7.01C39.7879 7.01 39.5479 7.13 39.3679 7.37C39.1946 7.60333 39.1079 7.93 39.1079 8.35C39.1079 8.76333 39.1946 9.09 39.3679 9.33C39.5479 9.57 39.7879 9.69 40.0879 9.69ZM44.5179 13.56C44.1979 13.56 43.9146 13.48 43.6679 13.32C43.4212 13.16 43.2312 12.9367 43.0979 12.65C42.9646 12.3633 42.8979 12.03 42.8979 11.65C42.8979 11.27 42.9646 10.9367 43.0979 10.65C43.2312 10.3633 43.4212 10.14 43.6679 9.98C43.9146 9.82 44.1979 9.74 44.5179 9.74C44.8446 9.74 45.1279 9.82 45.3679 9.98C45.6146 10.14 45.8046 10.3633 45.9379 10.65C46.0779 10.9367 46.1479 11.27 46.1479 11.65C46.1479 12.03 46.0779 12.3633 45.9379 12.65C45.8046 12.9367 45.6146 13.16 45.3679 13.32C45.1279 13.48 44.8446 13.56 44.5179 13.56ZM44.5179 12.99C44.8179 12.99 45.0546 12.8733 45.2279 12.64C45.4079 12.4 45.4979 12.07 45.4979 11.65C45.4979 11.2367 45.4079 10.91 45.2279 10.67C45.0546 10.43 44.8179 10.31 44.5179 10.31C44.2179 10.31 43.9779 10.43 43.7979 10.67C43.6246 10.9033 43.5379 11.23 43.5379 11.65C43.5379 12.07 43.6246 12.4 43.7979 12.64C43.9779 12.8733 44.2179 12.99 44.5179 12.99ZM52.3812 13.56C51.8478 13.56 51.3745 13.4433 50.9612 13.21C50.5478 12.9767 50.2212 12.6567 49.9812 12.25C49.7412 11.8367 49.6212 11.37 49.6212 10.85C49.6212 10.3233 49.7412 9.85667 49.9812 9.45C50.2212 9.04333 50.5478 8.72667 50.9612 8.5C51.3745 8.26667 51.8478 8.15 52.3812 8.15C52.9078 8.15 53.3778 8.26667 53.7912 8.5C54.2112 8.72667 54.5378 9.04333 54.7712 9.45C55.0112 9.85 55.1312 10.3167 55.1312 10.85C55.1312 11.3767 55.0112 11.8433 54.7712 12.25C54.5378 12.6567 54.2112 12.9767 53.7912 13.21C53.3778 13.4433 52.9078 13.56 52.3812 13.56ZM52.3812 12.72C52.7212 12.72 53.0245 12.6433 53.2912 12.49C53.5645 12.3367 53.7778 12.12 53.9312 11.84C54.0845 11.5533 54.1612 11.2233 54.1612 10.85C54.1612 10.47 54.0845 10.1433 53.9312 9.87C53.7778 9.59 53.5645 9.37333 53.2912 9.22C53.0245 9.06667 52.7212 8.99 52.3812 8.99C52.0412 8.99 51.7378 9.06667 51.4712 9.22C51.2045 9.37333 50.9912 9.59 50.8312 9.87C50.6712 10.1433 50.5912 10.47 50.5912 10.85C50.5912 11.2233 50.6712 11.5533 50.8312 11.84C50.9912 12.12 51.2045 12.3367 51.4712 12.49C51.7378 12.6433 52.0412 12.72 52.3812 12.72ZM56.5988 13.5V7.73C56.5988 7.21 56.7488 6.79667 57.0488 6.49C57.3555 6.17667 57.7888 6.02 58.3488 6.02C58.5555 6.02 58.7522 6.04667 58.9388 6.1C59.1322 6.14667 59.2955 6.22333 59.4288 6.33L59.1388 7.06C59.0388 6.98 58.9255 6.92 58.7988 6.88C58.6722 6.83333 58.5388 6.81 58.3988 6.81C58.1188 6.81 57.9055 6.89 57.7588 7.05C57.6122 7.20333 57.5388 7.43333 57.5388 7.74V8.45L57.5588 8.89V13.5H56.5988ZM55.6988 8.99V8.2H59.0788V8.99H55.6988ZM60.134 13.5V7.73C60.134 7.21 60.284 6.79667 60.584 6.49C60.8907 6.17667 61.324 6.02 61.884 6.02C62.0907 6.02 62.2873 6.04667 62.474 6.1C62.6673 6.14667 62.8307 6.22333 62.964 6.33L62.674 7.06C62.574 6.98 62.4607 6.92 62.334 6.88C62.2073 6.83333 62.074 6.81 61.934 6.81C61.654 6.81 61.4407 6.89 61.294 7.05C61.1473 7.20333 61.074 7.43333 61.074 7.74V8.45L61.094 8.89V13.5H60.134ZM59.234 8.99V8.2H62.614V8.99H59.234Z" fill="white"/>
</svg>
