<svg width="24" height="24" viewBox="0 0 24 24" fill="none" xmlns="http://www.w3.org/2000/svg">
<g clip-path="url(#clip0_244_23900)">
<path d="M5.18118 20.9107V19.7194C5.18118 19.2626 4.90506 18.9648 4.43175 18.9648C4.19515 18.9648 3.93878 19.0443 3.76128 19.3024C3.62331 19.084 3.42614 18.9648 3.13034 18.9648C2.93307 18.9648 2.73599 19.0244 2.57817 19.2428V19.0046H2.16406V20.9107H2.57817V19.8583C2.57817 19.5209 2.75567 19.3619 3.03179 19.3619C3.30774 19.3619 3.4459 19.5407 3.4459 19.8583V20.9107H3.86V19.8583C3.86 19.5209 4.05708 19.3619 4.31345 19.3619C4.58958 19.3619 4.72756 19.5407 4.72756 19.8583V20.9107H5.18118ZM11.3138 19.0046H10.6434V18.4287H10.2293V19.0046H9.85463V19.3817H10.2292V20.2555C10.2292 20.6924 10.4067 20.9505 10.88 20.9505C11.0575 20.9505 11.2546 20.8909 11.3927 20.8115L11.2744 20.4541C11.1561 20.5335 11.0181 20.5534 10.9194 20.5534C10.7223 20.5534 10.6434 20.4342 10.6434 20.2356V19.3817H11.3138V19.0046ZM14.8239 18.9648C14.5873 18.9648 14.4295 19.084 14.3309 19.2428V19.0046H13.9168V20.9107H14.3309V19.8385C14.3309 19.5209 14.4689 19.3421 14.7253 19.3421C14.8041 19.3421 14.9028 19.362 14.9816 19.3818L15.0999 18.9847C15.0211 18.9648 14.9028 18.9648 14.8239 18.9648V18.9648ZM9.5194 19.1634C9.32214 19.0244 9.0461 18.9648 8.7503 18.9648C8.27709 18.9648 7.96161 19.2031 7.96161 19.5804C7.96161 19.8981 8.19822 20.0768 8.61232 20.1364L8.80949 20.1563C9.02642 20.1959 9.14473 20.2555 9.14473 20.3548C9.14473 20.4938 8.98699 20.5931 8.71086 20.5931C8.43482 20.5931 8.21789 20.4938 8.07982 20.3945L7.88265 20.7122C8.09959 20.871 8.39539 20.9505 8.6911 20.9505C9.24327 20.9505 9.55883 20.6924 9.55883 20.3349C9.55883 19.9974 9.30246 19.8186 8.90803 19.7591L8.71086 19.7392C8.53336 19.7193 8.39539 19.6797 8.39539 19.5606C8.39539 19.4215 8.53336 19.3421 8.7503 19.3421C8.98699 19.3421 9.2236 19.4413 9.3419 19.501L9.5194 19.1634ZM20.5228 18.9648C20.2861 18.9648 20.1284 19.084 20.0297 19.2428V19.0046H19.6156V20.9107H20.0297V19.8385C20.0297 19.5209 20.1678 19.3421 20.4241 19.3421C20.503 19.3421 20.6017 19.362 20.6805 19.3818L20.7988 18.9847C20.72 18.9648 20.6017 18.9648 20.5228 18.9648ZM15.238 19.9576C15.238 20.5335 15.6323 20.9505 16.2437 20.9505C16.5197 20.9505 16.7169 20.8909 16.9141 20.7321L16.7169 20.3945C16.5592 20.5137 16.4014 20.5732 16.2239 20.5732C15.8887 20.5732 15.6521 20.3349 15.6521 19.9576C15.6521 19.6003 15.8887 19.3619 16.2239 19.3421C16.4014 19.3421 16.5592 19.4016 16.7169 19.5209L16.9141 19.1833C16.7169 19.0244 16.5197 18.9648 16.2437 18.9648C15.6323 18.9648 15.238 19.3818 15.238 19.9576ZM19.0636 19.9576V19.0046H18.6495V19.2428C18.5114 19.0642 18.3142 18.9648 18.0579 18.9648C17.5254 18.9648 17.1113 19.3818 17.1113 19.9576C17.1113 20.5335 17.5254 20.9505 18.0579 20.9505C18.3339 20.9505 18.5312 20.8512 18.6495 20.6725V20.9107H19.0636V19.9576ZM17.5451 19.9576C17.5451 19.6201 17.762 19.3421 18.117 19.3421C18.4522 19.3421 18.6889 19.6003 18.6889 19.9576C18.6889 20.2952 18.4522 20.5732 18.117 20.5732C17.762 20.5533 17.5451 20.2952 17.5451 19.9576ZM12.5956 18.9648C12.0435 18.9648 11.649 19.3619 11.649 19.9576C11.649 20.5534 12.0434 20.9505 12.6153 20.9505C12.8913 20.9505 13.1675 20.871 13.3844 20.6924L13.1871 20.3945C13.0294 20.5137 12.8322 20.5931 12.6351 20.5931C12.3787 20.5931 12.1223 20.474 12.0631 20.1363H13.4633V19.9775C13.483 19.3619 13.1281 18.9648 12.5956 18.9648ZM12.5956 19.3222C12.8519 19.3222 13.0295 19.4811 13.0688 19.779H12.0829C12.1223 19.5209 12.2998 19.3222 12.5956 19.3222ZM22.8694 19.9576V18.25H22.4553V19.2428C22.3172 19.0642 22.12 18.9648 21.8637 18.9648C21.3312 18.9648 20.9171 19.3818 20.9171 19.9576C20.9171 20.5335 21.3312 20.9505 21.8637 20.9505C22.1398 20.9505 22.337 20.8512 22.4553 20.6725V20.9107H22.8694V19.9576ZM21.351 19.9576C21.351 19.6201 21.5679 19.3421 21.9229 19.3421C22.2581 19.3421 22.4947 19.6003 22.4947 19.9576C22.4947 20.2952 22.2581 20.5732 21.9229 20.5732C21.5679 20.5533 21.351 20.2952 21.351 19.9576ZM7.50798 19.9576V19.0046H7.09388V19.2428C6.95581 19.0642 6.75864 18.9648 6.50228 18.9648C5.96987 18.9648 5.55576 19.3818 5.55576 19.9576C5.55576 20.5335 5.96987 20.9505 6.50228 20.9505C6.77841 20.9505 6.97558 20.8512 7.09388 20.6725V20.9107H7.50798V19.9576ZM5.96987 19.9576C5.96987 19.6201 6.1868 19.3421 6.54171 19.3421C6.87695 19.3421 7.11364 19.6003 7.11364 19.9576C7.11364 20.2952 6.87695 20.5732 6.54171 20.5732C6.1868 20.5533 5.96987 20.2952 5.96987 19.9576Z" fill="black"/>
<path d="M9.38281 4.52881H15.5944V15.7676H9.38281V4.52881Z" fill="#FF5F00"/>
<path d="M9.77515 10.1484C9.77515 7.86488 10.84 5.83948 12.4766 4.52891C11.2738 3.57582 9.75548 3 8.09906 3C4.17477 3 1 6.19685 1 10.1484C1 14.0998 4.17477 17.2967 8.09897 17.2967C9.75539 17.2967 11.2737 16.7209 12.4766 15.7677C10.84 14.477 9.77515 12.4318 9.77515 10.1484Z" fill="#EB001B"/>
<path d="M23.9766 10.1484C23.9766 14.0998 20.8018 17.2967 16.8776 17.2967C15.2212 17.2967 13.7029 16.7209 12.5 15.7677C14.1564 14.4572 15.2016 12.4318 15.2016 10.1484C15.2016 7.86488 14.1367 5.83948 12.5 4.52891C13.7028 3.57582 15.2212 3 16.8776 3C20.8018 3 23.9766 6.21675 23.9766 10.1484Z" fill="#F79E1B"/>
</g>
<defs>
<clipPath id="clip0_244_23900">
<rect width="23" height="18" fill="white" transform="translate(1 3)"/>
</clipPath>
</defs>
</svg>
