<svg width="24" height="24" viewBox="0 0 24 24" fill="none" xmlns="http://www.w3.org/2000/svg">
<path d="M13.8182 12.875C13.0606 12.875 12.4167 12.6198 11.8864 12.1094C11.3561 11.599 11.0909 10.9792 11.0909 10.25C11.0909 9.52083 11.3561 8.90104 11.8864 8.39062C12.4167 7.88021 13.0606 7.625 13.8182 7.625C14.5758 7.625 15.2197 7.88021 15.75 8.39062C16.2803 8.90104 16.5455 9.52083 16.5455 10.25C16.5455 10.9792 16.2803 11.599 15.75 12.1094C15.2197 12.6198 14.5758 12.875 13.8182 12.875ZM7.45455 15.5C6.95455 15.5 6.52652 15.3286 6.17045 14.9859C5.81439 14.6432 5.63636 14.2312 5.63636 13.75V6.75C5.63636 6.26875 5.81439 5.85677 6.17045 5.51406C6.52652 5.17135 6.95455 5 7.45455 5H20.1818C20.6818 5 21.1098 5.17135 21.4659 5.51406C21.822 5.85677 22 6.26875 22 6.75V13.75C22 14.2312 21.822 14.6432 21.4659 14.9859C21.1098 15.3286 20.6818 15.5 20.1818 15.5H7.45455ZM9.27273 13.75H18.3636C18.3636 13.2688 18.5417 12.8568 18.8977 12.5141C19.2538 12.1714 19.6818 12 20.1818 12V8.5C19.6818 8.5 19.2538 8.32865 18.8977 7.98594C18.5417 7.64323 18.3636 7.23125 18.3636 6.75H9.27273C9.27273 7.23125 9.0947 7.64323 8.73864 7.98594C8.38258 8.32865 7.95455 8.5 7.45455 8.5V12C7.95455 12 8.38258 12.1714 8.73864 12.5141C9.0947 12.8568 9.27273 13.2688 9.27273 13.75ZM19.2727 19H3.81818C3.31818 19 2.89015 18.8286 2.53409 18.4859C2.17803 18.1432 2 17.7312 2 17.25V7.625H3.81818V17.25H19.2727V19Z" fill="#04B636"/>
</svg>
