<svg width="25" height="24" viewBox="0 0 25 24" fill="none" xmlns="http://www.w3.org/2000/svg">
<g clip-path="url(#clip0_806_13614)">
<g clip-path="url(#clip1_806_13614)">
<path d="M5.637 20.9107V19.7194C5.637 19.2626 5.36087 18.9648 4.88757 18.9648C4.65096 18.9648 4.39459 19.0443 4.21709 19.3024C4.07912 19.084 3.88195 18.9648 3.58615 18.9648C3.38889 18.9648 3.1918 19.0244 3.03398 19.2428V19.0046H2.61987V20.9107H3.03398V19.8583C3.03398 19.5209 3.21148 19.3619 3.48761 19.3619C3.76356 19.3619 3.90171 19.5407 3.90171 19.8583V20.9107H4.31581V19.8583C4.31581 19.5209 4.5129 19.3619 4.76926 19.3619C5.04539 19.3619 5.18337 19.5407 5.18337 19.8583V20.9107H5.637ZM11.7696 19.0046H11.0992V18.4287H10.6851V19.0046H10.3104V19.3817H10.685V20.2555C10.685 20.6924 10.8625 20.9505 11.3358 20.9505C11.5133 20.9505 11.7104 20.8909 11.8486 20.8115L11.7302 20.4541C11.6119 20.5335 11.4739 20.5534 11.3753 20.5534C11.1781 20.5534 11.0992 20.4342 11.0992 20.2356V19.3817H11.7696V19.0046ZM15.2797 18.9648C15.0431 18.9648 14.8854 19.084 14.7867 19.2428V19.0046H14.3726V20.9107H14.7867V19.8385C14.7867 19.5209 14.9247 19.3421 15.1811 19.3421C15.2599 19.3421 15.3586 19.362 15.4374 19.3818L15.5557 18.9847C15.4769 18.9648 15.3586 18.9648 15.2797 18.9648V18.9648ZM9.97521 19.1634C9.77795 19.0244 9.50191 18.9648 9.20611 18.9648C8.7329 18.9648 8.41742 19.2031 8.41742 19.5804C8.41742 19.8981 8.65403 20.0768 9.06813 20.1364L9.2653 20.1563C9.48224 20.1959 9.60054 20.2555 9.60054 20.3548C9.60054 20.4938 9.4428 20.5931 9.16667 20.5931C8.89063 20.5931 8.6737 20.4938 8.53563 20.3945L8.33846 20.7122C8.5554 20.871 8.8512 20.9505 9.14691 20.9505C9.69908 20.9505 10.0146 20.6924 10.0146 20.3349C10.0146 19.9974 9.75828 19.8186 9.36384 19.7591L9.16667 19.7392C8.98917 19.7193 8.8512 19.6797 8.8512 19.5606C8.8512 19.4215 8.98917 19.3421 9.20611 19.3421C9.4428 19.3421 9.67941 19.4413 9.79771 19.501L9.97521 19.1634ZM20.9786 18.9648C20.7419 18.9648 20.5842 19.084 20.4856 19.2428V19.0046H20.0714V20.9107H20.4856V19.8385C20.4856 19.5209 20.6236 19.3421 20.8799 19.3421C20.9589 19.3421 21.0575 19.362 21.1364 19.3818L21.2547 18.9847C21.1758 18.9648 21.0575 18.9648 20.9786 18.9648ZM15.6938 19.9576C15.6938 20.5335 16.0881 20.9505 16.6995 20.9505C16.9755 20.9505 17.1727 20.8909 17.3699 20.7321L17.1727 20.3945C17.015 20.5137 16.8572 20.5732 16.6797 20.5732C16.3445 20.5732 16.1079 20.3349 16.1079 19.9576C16.1079 19.6003 16.3445 19.3619 16.6797 19.3421C16.8572 19.3421 17.015 19.4016 17.1727 19.5209L17.3699 19.1833C17.1727 19.0244 16.9755 18.9648 16.6995 18.9648C16.0881 18.9648 15.6938 19.3818 15.6938 19.9576ZM19.5194 19.9576V19.0046H19.1053V19.2428C18.9672 19.0642 18.77 18.9648 18.5137 18.9648C17.9813 18.9648 17.5672 19.3818 17.5672 19.9576C17.5672 20.5335 17.9813 20.9505 18.5137 20.9505C18.7897 20.9505 18.987 20.8512 19.1053 20.6725V20.9107H19.5194V19.9576ZM18.0009 19.9576C18.0009 19.6201 18.2179 19.3421 18.5728 19.3421C18.908 19.3421 19.1447 19.6003 19.1447 19.9576C19.1447 20.2952 18.908 20.5732 18.5728 20.5732C18.2179 20.5533 18.0009 20.2952 18.0009 19.9576ZM13.0514 18.9648C12.4993 18.9648 12.1048 19.3619 12.1048 19.9576C12.1048 20.5534 12.4992 20.9505 13.0711 20.9505C13.3471 20.9505 13.6233 20.871 13.8402 20.6924L13.643 20.3945C13.4852 20.5137 13.288 20.5931 13.0909 20.5931C12.8345 20.5931 12.5781 20.474 12.5189 20.1363H13.9191V19.9775C13.9388 19.3619 13.5839 18.9648 13.0514 18.9648ZM13.0514 19.3222C13.3077 19.3222 13.4853 19.4811 13.5246 19.779H12.5387C12.5781 19.5209 12.7556 19.3222 13.0514 19.3222ZM23.3252 19.9576V18.25H22.9111V19.2428C22.773 19.0642 22.5758 18.9648 22.3195 18.9648C21.7871 18.9648 21.373 19.3818 21.373 19.9576C21.373 20.5335 21.7871 20.9505 22.3195 20.9505C22.5956 20.9505 22.7928 20.8512 22.9111 20.6725V20.9107H23.3252V19.9576ZM21.8068 19.9576C21.8068 19.6201 22.0237 19.3421 22.3787 19.3421C22.7139 19.3421 22.9505 19.6003 22.9505 19.9576C22.9505 20.2952 22.7139 20.5732 22.3787 20.5732C22.0237 20.5533 21.8068 20.2952 21.8068 19.9576ZM7.96379 19.9576V19.0046H7.54969V19.2428C7.41162 19.0642 7.21445 18.9648 6.95809 18.9648C6.42568 18.9648 6.01158 19.3818 6.01158 19.9576C6.01158 20.5335 6.42568 20.9505 6.95809 20.9505C7.23422 20.9505 7.43139 20.8512 7.54969 20.6725V20.9107H7.96379V19.9576ZM6.42568 19.9576C6.42568 19.6201 6.64261 19.3421 6.99752 19.3421C7.33276 19.3421 7.56945 19.6003 7.56945 19.9576C7.56945 20.2952 7.33276 20.5732 6.99752 20.5732C6.64261 20.5533 6.42568 20.2952 6.42568 19.9576Z" fill="black"/>
<path d="M9.83716 4.5293H16.0487V15.7681H9.83716V4.5293Z" fill="#FF5F00"/>
<path d="M10.2314 10.1484C10.2314 7.86488 11.2963 5.83948 12.9329 4.52891C11.7301 3.57582 10.2118 3 8.55536 3C4.63107 3 1.4563 6.19685 1.4563 10.1484C1.4563 14.0998 4.63107 17.2967 8.55527 17.2967C10.2117 17.2967 11.73 16.7209 12.9329 15.7677C11.2963 14.477 10.2314 12.4318 10.2314 10.1484Z" fill="#EB001B"/>
<path d="M24.4295 10.1484C24.4295 14.0998 21.2547 17.2967 17.3305 17.2967C15.6741 17.2967 14.1558 16.7209 12.9529 15.7677C14.6093 14.4572 15.6544 12.4318 15.6544 10.1484C15.6544 7.86488 14.5895 5.83948 12.9529 4.52891C14.1557 3.57582 15.6741 3 17.3305 3C21.2547 3 24.4295 6.21675 24.4295 10.1484Z" fill="#F79E1B"/>
</g>
</g>
<defs>
<clipPath id="clip0_806_13614">
<rect width="24" height="24" fill="white" transform="translate(0.454346)"/>
</clipPath>
<clipPath id="clip1_806_13614">
<rect width="23" height="18" fill="white" transform="translate(1.45435 3)"/>
</clipPath>
</defs>
</svg>
