<svg width="48" height="48" viewBox="0 0 48 48" fill="none" xmlns="http://www.w3.org/2000/svg">
<circle cx="24" cy="24" r="24" fill="#2B2B2B"/>
<path d="M23.492 14.789H19.753C16.678 14.789 14.75 16.966 14.75 20.048V28.362C14.75 31.444 16.669 33.621 19.753 33.621H28.577C31.662 33.621 33.581 31.444 33.581 28.362V24.334" stroke="white" stroke-width="1.5" stroke-linecap="round" stroke-linejoin="round"/>
<path fill-rule="evenodd" clip-rule="evenodd" d="M20.8267 22.9209L28.2997 15.4479C29.2307 14.5179 30.7397 14.5179 31.6707 15.4479L32.8877 16.6649C33.8187 17.5959 33.8187 19.1059 32.8877 20.0359L25.3787 27.5449C24.9717 27.9519 24.4197 28.1809 23.8437 28.1809H20.0977L20.1917 24.4009C20.2057 23.8449 20.4327 23.3149 20.8267 22.9209Z" stroke="white" stroke-width="1.5" stroke-linecap="round" stroke-linejoin="round"/>
<path d="M27.1641 16.6025L31.7301 21.1685" stroke="white" stroke-width="1.5" stroke-linecap="round" stroke-linejoin="round"/>
</svg>
