<svg width="40" height="40" viewBox="0 0 40 40" fill="none" xmlns="http://www.w3.org/2000/svg">
<circle cx="20" cy="20" r="20" fill="#231F20"/>
<path d="M19.577 12.3242H16.4612C13.8987 12.3242 12.292 14.1384 12.292 16.7067V23.6351C12.292 26.2034 13.8912 28.0176 16.4612 28.0176H23.8145C26.3853 28.0176 27.9845 26.2034 27.9845 23.6351V20.2784" stroke="white" stroke-width="1.5" stroke-linecap="round" stroke-linejoin="round"/>
<path fill-rule="evenodd" clip-rule="evenodd" d="M17.3565 19.1017L23.584 12.8742C24.3599 12.0992 25.6174 12.0992 26.3932 12.8742L27.4074 13.8884C28.1832 14.6642 28.1832 15.9226 27.4074 16.6976L21.1499 22.9551C20.8107 23.2942 20.3507 23.4851 19.8707 23.4851H16.749L16.8274 20.3351C16.839 19.8717 17.0282 19.4301 17.3565 19.1017Z" stroke="white" stroke-width="1.5" stroke-linecap="round" stroke-linejoin="round"/>
<path d="M22.6377 13.8359L26.4427 17.6409" stroke="white" stroke-width="1.5" stroke-linecap="round" stroke-linejoin="round"/>
</svg>
