<svg width="16" height="16" viewBox="0 0 16 16" fill="none" xmlns="http://www.w3.org/2000/svg">
<path fill-rule="evenodd" clip-rule="evenodd" d="M14.6667 8.00065C14.6667 11.6827 11.682 14.6673 8.00004 14.6673C4.31804 14.6673 1.33337 11.6827 1.33337 8.00065C1.33337 4.31865 4.31804 1.33398 8.00004 1.33398C11.682 1.33398 14.6667 4.31865 14.6667 8.00065ZM5.98004 5.98065C6.07379 5.88702 6.20087 5.83442 6.33337 5.83442C6.46587 5.83442 6.59296 5.88702 6.68671 5.98065L8.00004 7.29398L9.31337 5.98065C9.40816 5.89233 9.53352 5.84425 9.66305 5.84653C9.79259 5.84882 9.91618 5.90129 10.0078 5.9929C10.0994 6.08451 10.1519 6.2081 10.1542 6.33764C10.1564 6.46717 10.1084 6.59253 10.02 6.68732L8.70671 8.00065L10.02 9.31398C10.1084 9.40877 10.1564 9.53413 10.1542 9.66366C10.1519 9.7932 10.0994 9.91679 10.0078 10.0084C9.91618 10.1 9.79259 10.1525 9.66305 10.1548C9.53352 10.1571 9.40816 10.109 9.31337 10.0206L8.00004 8.70732L6.68671 10.0206C6.59192 10.109 6.46656 10.1571 6.33703 10.1548C6.20749 10.1525 6.0839 10.1 5.99229 10.0084C5.90068 9.91679 5.84821 9.7932 5.84592 9.66366C5.84364 9.53413 5.89172 9.40877 5.98004 9.31398L7.29337 8.00065L5.98004 6.68732C5.88641 6.59357 5.83381 6.46648 5.83381 6.33398C5.83381 6.20148 5.88641 6.0744 5.98004 5.98065Z" fill="#2B2B2B"/>
</svg>
