<svg width="16" height="16" viewBox="0 0 16 16" fill="none" xmlns="http://www.w3.org/2000/svg">
<path fill-rule="evenodd" clip-rule="evenodd" d="M8.73617 2.78337L9.95445 5.2172C10.0738 5.45614 10.3043 5.62181 10.5716 5.66015L13.2969 6.05244C13.9702 6.14966 14.2382 6.96573 13.7509 7.43333L11.7801 9.32699C11.5864 9.51321 11.4983 9.7809 11.5441 10.0438L12.0092 12.7172C12.1237 13.3786 11.4198 13.8832 10.818 13.5703L8.38214 12.3072C8.14335 12.1832 7.85735 12.1832 7.61786 12.3072L5.182 13.5703C4.58015 13.8832 3.87626 13.3786 3.9915 12.7172L4.4559 10.0438C4.50171 9.7809 4.41355 9.51321 4.21988 9.32699L2.24912 7.43333C1.76181 6.96573 2.02976 6.14966 2.70311 6.05244L5.42843 5.66015C5.69569 5.62181 5.92685 5.45614 6.04625 5.2172L7.26383 2.78337C7.5651 2.18159 8.4349 2.18159 8.73617 2.78337Z" stroke="#919191" stroke-width="0.95" stroke-linecap="round" stroke-linejoin="round"/>
</svg>
