<svg width="19" height="18" viewBox="0 0 19 18" fill="none" xmlns="http://www.w3.org/2000/svg">
<path d="M16.321 5.0475C16.306 5.0475 16.2835 5.0475 16.261 5.0475C12.2935 4.65 8.33354 4.5 4.41104 4.8975L2.88104 5.0475C2.56604 5.0775 2.28854 4.8525 2.25854 4.5375C2.22854 4.2225 2.45354 3.9525 2.76104 3.9225L4.29104 3.7725C8.28104 3.3675 12.3235 3.525 16.3735 3.9225C16.681 3.9525 16.906 4.23 16.876 4.5375C16.8535 4.83 16.606 5.0475 16.321 5.0475Z" fill="#FA0200"/>
<path d="M6.94587 4.29C6.91587 4.29 6.88587 4.29 6.84837 4.2825C6.54837 4.23 6.33837 3.9375 6.39087 3.6375L6.55587 2.655C6.67587 1.935 6.84087 0.9375 8.58837 0.9375H10.5534C12.3084 0.9375 12.4734 1.9725 12.5859 2.6625L12.7509 3.6375C12.8034 3.945 12.5934 4.2375 12.2934 4.2825C11.9859 4.335 11.6934 4.125 11.6484 3.825L11.4834 2.85C11.3784 2.1975 11.3559 2.07 10.5609 2.07H8.59587C7.80087 2.07 7.78587 2.175 7.67337 2.8425L7.50087 3.8175C7.45587 4.095 7.21587 4.29 6.94587 4.29Z" fill="#FA0200"/>
<path d="M11.9781 17.0625H7.1631C4.5456 17.0625 4.4406 15.615 4.3581 14.445L3.8706 6.8925C3.8481 6.585 4.0881 6.315 4.3956 6.2925C4.7106 6.2775 4.9731 6.51 4.9956 6.8175L5.4831 14.37C5.5656 15.51 5.5956 15.9375 7.1631 15.9375H11.9781C13.5531 15.9375 13.5831 15.51 13.6581 14.37L14.1456 6.8175C14.1681 6.51 14.4381 6.2775 14.7456 6.2925C15.0531 6.315 15.2931 6.5775 15.2706 6.8925L14.7831 14.445C14.7006 15.615 14.5956 17.0625 11.9781 17.0625Z" fill="#FA0200"/>
<path d="M10.8159 12.9375H8.31836C8.01086 12.9375 7.75586 12.6825 7.75586 12.375C7.75586 12.0675 8.01086 11.8125 8.31836 11.8125H10.8159C11.1234 11.8125 11.3784 12.0675 11.3784 12.375C11.3784 12.6825 11.1234 12.9375 10.8159 12.9375Z" fill="#FA0200"/>
<path d="M11.4453 9.9375H7.69531C7.38781 9.9375 7.13281 9.6825 7.13281 9.375C7.13281 9.0675 7.38781 8.8125 7.69531 8.8125H11.4453C11.7528 8.8125 12.0078 9.0675 12.0078 9.375C12.0078 9.6825 11.7528 9.9375 11.4453 9.9375Z" fill="#FA0200"/>
</svg>
