<svg width="25" height="24" viewBox="0 0 25 24" fill="none" xmlns="http://www.w3.org/2000/svg">
<g clip-path="url(#clip0_429_7911)">
<path d="M6.84298 20.5551L7.23535 20.749C8.87025 21.7186 10.7013 22.171 12.5324 22.171C18.2873 22.171 22.9958 17.5171 22.9958 11.8289C22.9958 9.11404 21.8841 6.46386 19.9222 4.52471C17.9603 2.58555 15.3445 1.48669 12.5324 1.48669C6.77758 1.48669 2.06907 6.14067 2.13446 11.8935C2.13446 13.8327 2.72303 15.7072 3.70397 17.3231L3.96555 17.711L2.91921 21.5246L6.84298 20.5551Z" fill="white"/>
<path d="M21.0344 3.49048C18.8109 1.22813 15.7373 0 12.5983 0C5.92787 0 0.565396 5.365 0.630792 11.8935C0.630792 13.9619 1.21936 15.9657 2.2003 17.7756L0.5 23.9163L6.84342 22.3003C8.60911 23.2699 10.571 23.7224 12.5329 23.7224C19.1379 23.7224 24.5003 18.3574 24.5003 11.8289C24.5003 8.66157 23.2578 5.68819 21.0344 3.49048ZM12.5983 21.7186C10.8326 21.7186 9.06688 21.2661 7.56277 20.3611L7.1704 20.1672L3.37743 21.1368L4.35837 17.4524L4.09678 17.0646C1.21936 12.4752 2.59267 6.39922 7.30119 3.55512C12.0097 0.711024 18.0915 2.06843 20.969 6.72241C23.8464 11.3764 22.4731 17.3878 17.7646 20.2319C16.2604 21.2014 14.4294 21.7186 12.5983 21.7186ZM18.3531 14.5437L17.6338 14.2205C17.6338 14.2205 16.5874 13.768 15.9335 13.4448C15.8681 13.4448 15.8027 13.3802 15.7373 13.3802C15.5411 13.3802 15.4103 13.4448 15.2795 13.5095C15.2795 13.5095 15.2141 13.5741 14.2986 14.6083C14.2332 14.7376 14.1024 14.8022 13.9716 14.8022H13.9062C13.8408 14.8022 13.71 14.7376 13.6446 14.673L13.3176 14.5437C12.5983 14.2205 11.9443 13.8327 11.4211 13.3155C11.2903 13.1863 11.0942 13.057 10.9634 12.9277C10.5056 12.4752 10.0478 11.9581 9.72084 11.3764L9.65545 11.2471C9.59005 11.1825 9.59005 11.1178 9.52465 10.9886C9.52465 10.8593 9.52465 10.73 9.59005 10.6654C9.59005 10.6654 9.85163 10.3422 10.0478 10.1483C10.1786 10.019 10.244 9.82506 10.3748 9.69578C10.5056 9.50187 10.571 9.24331 10.5056 9.0494C10.4402 8.72621 9.65545 6.98097 9.45926 6.59313C9.32847 6.39922 9.19767 6.33458 9.00149 6.26994H8.8053C8.67451 6.26994 8.47832 6.26994 8.28213 6.26994C8.15134 6.26994 8.02054 6.33458 7.88975 6.33458L7.82436 6.39922C7.69356 6.46386 7.56277 6.59313 7.43198 6.65777C7.30119 6.78705 7.23579 6.91633 7.105 7.0456C6.64723 7.62735 6.38564 8.33838 6.38564 9.0494C6.38564 9.56651 6.51644 10.0836 6.71262 10.5361L6.77802 10.73C7.36658 11.9581 8.15134 13.057 9.19767 14.0266L9.45926 14.2851C9.65545 14.479 9.85163 14.6083 9.98243 14.8022C11.3557 15.9657 12.9252 16.806 14.6909 17.2585C14.8871 17.3231 15.1487 17.3231 15.3449 17.3878C15.5411 17.3878 15.8027 17.3878 15.9989 17.3878C16.3258 17.3878 16.7182 17.2585 16.9798 17.1292C17.176 16.9999 17.3068 16.9999 17.4376 16.8707L17.5684 16.7414C17.6992 16.6121 17.83 16.5475 17.9607 16.4182C18.0915 16.2889 18.2223 16.1596 18.2877 16.0304C18.4185 15.7718 18.4839 15.4486 18.5493 15.1254C18.5493 14.9961 18.5493 14.8022 18.5493 14.673C18.5493 14.673 18.4839 14.6083 18.3531 14.5437Z" fill="#666666"/>
</g>
<defs>
<clipPath id="clip0_429_7911">
<rect width="24" height="24" fill="white" transform="translate(0.5)"/>
</clipPath>
</defs>
</svg>
